<?xml version="1.0" standalone="no"?>
<!DOCTYPE svg PUBLIC "-//W3C//DTD SVG 20010904//EN"
 "http://www.w3.org/TR/2001/REC-SVG-20010904/DTD/svg10.dtd">
<svg version="1.0" xmlns="http://www.w3.org/2000/svg"
 width="50.000000pt" height="50.000000pt" viewBox="0 0 50.000000 50.000000"
 preserveAspectRatio="xMidYMid meet">

<g transform="translate(0.000000,50.000000) scale(0.100000,-0.100000)"
fill="#000000" stroke="none">
<path d="M153 469 c-74 -22 -132 -121 -120 -208 2 -21 19 -67 36 -102 20 -41
31 -79 31 -106 l0 -43 110 0 c103 0 110 1 110 20 0 16 7 20 30 20 46 0 80 39
80 90 0 33 4 42 25 52 31 14 31 15 1 69 -13 24 -30 64 -36 88 -27 103 -145
155 -267 120z m141 -64 c3 -9 12 -12 22 -8 13 5 16 3 11 -10 -4 -10 0 -20 11
-27 16 -9 16 -11 0 -20 -11 -7 -15 -17 -11 -27 5 -12 2 -15 -10 -10 -10 4 -20
0 -27 -11 -9 -16 -11 -16 -20 0 -7 11 -17 15 -27 11 -12 -5 -15 -2 -10 10 4
10 0 20 -11 27 -16 9 -16 11 0 20 11 7 15 17 11 27 -5 13 -2 15 11 10 10 -4
19 -1 22 8 4 8 10 15 14 15 4 0 10 -7 14 -15z m-120 -80 c3 -9 12 -12 22 -8
13 5 16 3 11 -10 -4 -10 0 -20 11 -27 16 -9 16 -11 0 -20 -11 -7 -15 -17 -11
-27 5 -12 2 -15 -10 -10 -10 4 -20 0 -27 -11 -9 -16 -11 -16 -20 0 -7 11 -17
15 -27 11 -12 -5 -15 -2 -10 10 4 10 0 20 -11 27 -16 9 -16 11 0 20 11 7 15
17 11 27 -5 13 -2 15 11 10 10 -4 19 -1 22 8 4 8 10 15 14 15 4 0 10 -7 14
-15z"/>
<path d="M254 366 c-10 -26 4 -48 28 -44 33 4 33 52 0 56 -13 2 -25 -3 -28
-12z"/>
<path d="M134 286 c-10 -26 4 -48 28 -44 17 2 23 10 23 28 0 18 -6 26 -23 28
-13 2 -25 -3 -28 -12z"/>
</g>
</svg>
